<svg id="Layer_1" data-name="Layer 1" xmlns="http://www.w3.org/2000/svg" viewBox="0 0 14.95 19.89"><defs><style>.cls-1{fill:#84d044;}</style></defs><path class="cls-1" d="M7.47,0A7.48,7.48,0,0,0,0,7.47C0,14.1,6.73,19.32,7,19.54l.46.35.47-.35c.28-.22,7-5.44,7-12.07A7.48,7.48,0,0,0,7.47,0Zm0,17.94C6,16.68,1.52,12.42,1.52,7.47a6,6,0,0,1,11.91,0C13.43,12.4,9,16.67,7.47,17.94Z"/><path class="cls-1" d="M7.36,10.72a3.47,3.47,0,1,1,3.47-3.46A3.47,3.47,0,0,1,7.36,10.72Zm0-5.8A2.34,2.34,0,1,0,9.69,7.26,2.33,2.33,0,0,0,7.36,4.92Z"/></svg>