<?xml version="1.0" encoding="utf-8"?>
<!-- Generator: Adobe Illustrator 25.0.0, SVG Export Plug-In . SVG Version: 6.00 Build 0)  -->
<svg version="1.1" id="Grafica" xmlns="http://www.w3.org/2000/svg" xmlns:xlink="http://www.w3.org/1999/xlink" x="0px" y="0px"
	 viewBox="0 0 1000 1000.1" style="enable-background:new 0 0 1000 1000.1;" xml:space="preserve">
<style type="text/css">
	.st0{fill:#D72D10;}
</style>
<path class="st0" d="M852,638.5c41.2-66.4,62.9-143,62.8-221.2v-0.4c-0.1-1.9-1.6-48.3-15.2-98.3c-20.6-76.1-61.7-127.1-118.7-147.6
	c-66.8-24-149.5-3.4-245.8,61.1c-14,9.4-28.4,19.8-43.2,31.1c-15.1-12-29.3-22.4-42.3-31.2c-96.3-64.5-178.9-85-245.8-61
	c-57,20.5-98.1,71.5-118.8,147.5c-11.8,43.4-14,98.6-14,98.6c0,110.5,42.6,215,120,294.3l9.2,9.4c79,76.5,183.2,117.7,293.4,117.7
	c122.9,0,233.7-52.9,310.8-137.2l68.6,70.4l55.4,0.9l0.5-55.4L852,638.5z M743.5,274.9c47.4,16.9,59.2,108.7,59.8,142.4
	c0,38.1-7,75.8-20.6,111.3L658.2,401l-8.6,8.4c-25.5-26.1-49.7-50-72.8-71.7C677.8,264.6,726.2,268.8,743.5,274.9z M181.5,417.5
	v-0.2c0.5-34,12.2-125.4,59.7-142.4c45.6-16.3,122.5,31.2,164.8,61.4c-60.6,55.9-126.4,125.2-197.4,207.9
	C190.8,504.3,181.5,461.2,181.5,417.5L181.5,417.5z M492.3,728.4c-82-0.2-160.5-32.6-218.8-90.3c86.9-102.9,159.1-177.5,218.8-231.4
	c25.5,23,52.3,48.9,80.2,77.6l-11,10.7l144.3,148C648.2,697.7,571.8,728.2,492.3,728.4z M772.7,631.5l18.4-18l56,57.3l-18.5,18
	L772.7,631.5z M857.4,718.4l-10.5-10.8l18.5-18l10.5,10.8L857.4,718.4z M902.5,746.2l-18.3-0.3l-8.5-8.8l18.5-18l8.5,8.8
	L902.5,746.2z"/>
</svg>
