<?xml version="1.0" encoding="UTF-8"?><svg xmlns="http://www.w3.org/2000/svg" viewBox="0 0 155.01 139.36"><defs><style>.d{fill:#fff;}.e{fill:orange;}.f{fill:#fe2963;}.g{fill:#80675a;}.h{fill:#b29449;}.i{fill:#206fc6;}.j{fill:#20b356;}.k{fill:#84452f;}.l{fill:#50b4f8;}</style></defs><g id="a"/><g id="b"><g id="c"><g><g><g><path class="l" d="M68,62.27c1.64,0,2.97,1.33,2.97,2.97s-1.33,2.97-2.97,2.97h-8.76c-.04-.18-.09-.36-.14-.53-.05-.18-.1-.34-.16-.5-.11-.33-.24-.64-.38-.93-.07-.14-.14-.29-.22-.42-.07-.14-.15-.28-.23-.41-.08-.13-.16-.26-.25-.38s-.17-.24-.26-.36-.18-.23-.27-.34c-.09-.11-.18-.22-.28-.32-.1-.11-.19-.21-.29-.31-.1-.1-.2-.2-.3-.29,0,0,0,0,0,0-.1-.09-.2-.18-.3-.27-.31-.27-.63-.51-.94-.74,.68-1.09,1.87-1.83,3.25-1.83,.47,0,.91,.09,1.32,.24,.85-1.14,2.2-1.89,3.74-1.89,2.12,0,3.9,1.42,4.46,3.35h.04Z"/><path class="g" d="M59.1,67.68c.05,.17,.1,.35,.14,.53-.04-.18-.09-.36-.14-.53Z"/><path class="g" d="M58.1,65.41c.08,.13,.16,.27,.23,.41-.08-.14-.15-.27-.23-.41Z"/><path class="g" d="M57.04,64.01c.1,.1,.19,.21,.28,.32-.09-.11-.19-.22-.28-.32Z"/><path class="d" d="M53.68,37.84c-.63-.71-.83-1.66-.61-2.51l9.95,11.23c-.88,.12-1.81-.19-2.45-.91l-6.89-7.81Z"/><path class="k" d="M48.63,40.51c.1-.46,.5-.81,1-.81,.14,0,.28,.03,.4,.08,.11-.2,.19-.44,.19-.69,0-.79-.64-1.43-1.44-1.43s-1.43,.64-1.43,1.43c0,.75,.56,1.35,1.28,1.42Zm-14.65,27.36c-.16,0-.32,.01-.48,.03-.66-2.19-2.69-3.79-5.1-3.79-.65,0-1.26,.11-1.84,.33-.28-.38-.59-.72-.95-1.03,.42-8.38,2.02-17.8,5.48-23.85,5.3-9.25,14.28-10.25,17.91-10.25,.99,0,1.58,.08,1.58,.08l-.66,2.38,3.15,3.56c-.22,.86-.03,1.8,.61,2.51l6.89,7.81c.64,.72,1.57,1.03,2.45,.91l.87,.99s1.05,.76,.48,3.71c-.43,2.22-2.66,2.5-3.72,2.5-.34,0-.56-.03-.56-.03,0,0-8.91-2.55-11.97-3.43-9.63-2.76-7.13-10.98-7.01-11.36-5.38,10.76,5.3,13.55,5.3,13.55-2.16,7.3,2.15,8.59,5.16,10.58,2.72,1.79,5.46,3.07,5.46,8.27l-2.73-.38c-5.93-.82-11.88-1.5-17.84-2.03-.62-.64-1.5-1.05-2.47-1.05Z"/><path class="h" d="M48.63,40.51c-.72-.08-1.28-.68-1.28-1.42,0-.79,.64-1.43,1.43-1.43s1.44,.64,1.44,1.43c0,.25-.08,.49-.19,.69-.12-.05-.26-.08-.4-.08-.49,0-.9,.35-1,.81Z"/><path class="h" d="M31.1,39.56c-3.46,6.05-5.06,15.47-5.48,23.85-.26-.23-.53-.43-.82-.61-.14-.1-.29-.18-.44-.26-.15-.09-.31-.16-.47-.22-.63-.28-1.31-.44-2.03-.5,.14-.27,.33-.53,.56-.76l-1.22,.64s-.08-1.88,.92-3.26l-1.05,.49s.02-2.24,1.38-3.56l-1.04,.34s.21-1.61,1.21-2.81l-.98,.32s.28-2.18,1.77-3.34l-1.14,.24s.48-2.06,2.01-3.09l-1.44,.27s.45-1.72,1.72-2.77l-.87,.23s.36-1.92,1.67-3.24l-.71,.05s.87-2.32,2.81-3.26l-1.41-.07s1-1.88,2.77-2.71l-1.54-.41s1.54-1.82,3.61-2.13l-1.58-.57s1.83-1.83,4.11-1.98l-.75-.46s2.44-1.59,4.62-.65l-1.5-1.14s2.51-1.3,4.49-.16l-1.04-1.12s2.47-.78,4.13,.51c2.28-.54,4.28-.66,5.62-.66,1.12,0,1.82,.09,1.9,.1l2.94,.37-.64,2.3c1.32,0,2.64,.12,3.95,.33l-2.72,3.14,11.29,12.75c.34,.33,.76,.87,1.05,1.72,.4,1.17,.44,2.6,.12,4.27-.55,2.82-2.93,4.57-6.23,4.57-.47,0-.79-.04-.88-.05l-.19-.03-.18-.05s-6.76-1.93-10.53-3.01l-.02,.04c-1.31,4.44,.14,5.32,2.8,6.9,.43,.26,.88,.53,1.32,.81,.23,.14,.44,.29,.66,.43,.5,.32,1.03,.66,1.55,1.04,.32,.23,.63,.47,.94,.74,.1,.09,.2,.18,.3,.27,0,0,0,0,0,0,.1,.09,.2,.19,.3,.29,.1,.1,.2,.2,.29,.31,.1,.1,.19,.21,.28,.32,.09,.11,.18,.22,.27,.34s.18,.24,.26,.36,.17,.25,.25,.38,.16,.27,.23,.41c.08,.13,.15,.28,.22,.42,.14,.29,.27,.61,.38,.93,.06,.16,.11,.33,.16,.5,.05,.17,.1,.35,.14,.53,.21,.91,.34,1.94,.34,3.12v2.93l-2.91-.4-2.73-.38c-5.47-.76-11-1.39-16.53-1.91,0-.09,.01-.17,.01-.26,0-.93-.37-1.78-.98-2.4,5.96,.54,11.91,1.21,17.84,2.03l2.73,.38c0-5.2-2.74-6.47-5.46-8.27-3.01-1.99-7.32-3.28-5.16-10.58,0,0-10.67-2.79-5.3-13.55-.12,.38-2.62,8.61,7.01,11.36,3.06,.88,11.97,3.43,11.97,3.43,0,0,.23,.03,.56,.03,1.06,0,3.29-.27,3.72-2.5,.57-2.95-.48-3.71-.48-3.71l-.87-.99-9.95-11.23-3.15-3.56,.66-2.38s-.59-.08-1.58-.08c-3.62,0-12.61,1-17.91,10.25Z"/><path class="i" d="M25.62,63.41h0c-.26-.22-.53-.42-.82-.61,.29,.18,.56,.38,.82,.61Z"/><path class="i" d="M24.35,62.55c.16,.08,.3,.16,.44,.26-.14-.09-.29-.18-.44-.26Z"/><path class="i" d="M24.35,62.55c-.15-.08-.31-.15-.47-.22,.16,.06,.32,.13,.47,.22Z"/><path class="i" d="M23.89,62.33c-.63-.27-1.32-.43-2.04-.49,0,0,0,0,0,0,.72,.05,1.4,.22,2.03,.5Z"/><path class="i" d="M15.14,66.48c.78-2.7,3.27-4.67,6.22-4.67,.17,0,.33,0,.5,.02,0,0,0,0,0,0,.72,.06,1.4,.23,2.04,.49,.16,.07,.32,.14,.47,.22,.16,.08,.3,.17,.44,.26,.29,.18,.56,.39,.82,.61h0c.35,.3,.67,.65,.95,1.02,.58-.21,1.2-.33,1.84-.33,2.41,0,4.44,1.6,5.1,3.79,.16-.02,.32-.03,.48-.03,.96,0,1.84,.4,2.47,1.05,.61,.62,.98,1.46,.98,2.4,0,.09,0,.17-.01,.26-.13,1.78-1.62,3.19-3.43,3.19H15.09c-2.29,0-4.14-1.85-4.14-4.14s1.85-4.14,4.14-4.14h.05Z"/></g><path class="l" d="M136.63,57.69c-1.94-5.33-7.09-8.98-12.82-8.98-4.01,0-7.84,1.79-10.42,4.83-1.01-.28-2.04-.42-3.09-.42-4.68,0-8.91,2.91-10.63,7.2h-.05c-4.32,0-7.84,3.52-7.84,7.84s3.52,7.85,7.84,7.85h36.19c5.07,0,9.18-4.12,9.18-9.18,0-4.79-3.68-8.73-8.36-9.14Z"/><g><path class="e" d="M124.87,48.75c-.35-.03-.7-.04-1.06-.04-1.54,0-3.04,.26-4.46,.76-.61-19.67-16.81-35.49-36.62-35.49-11.95,0-22.57,5.74-29.26,14.61l.38-1.36-2.94-.37c-.08-.01-.78-.1-1.9-.1-.32,0-.68,0-1.07,.03,7.61-11.07,20.37-18.35,34.79-18.35,22.63,0,41.16,17.92,42.14,40.31Z"/><path class="j" d="M116.47,50.62v.24c-1.15,.73-2.19,1.63-3.08,2.68-.81-.22-1.62-.36-2.46-.4v-2.52c0-15.55-12.65-28.2-28.2-28.2-10.63,0-19.91,5.91-24.72,14.63l-3.58-4.05,2.72-3.14c-.3-.05-.6-.1-.9-.13,6.18-7.82,15.75-12.85,26.48-12.85,18.61,0,33.74,15.13,33.74,33.74Z"/><path class="l" d="M108.04,50.62v2.74c-2.09,.42-4.01,1.42-5.54,2.86v-5.6c0-10.9-8.87-19.77-19.77-19.77-8.56,0-15.86,5.47-18.61,13.09l-4.05-4.57c4.14-8.32,12.74-14.06,22.66-14.06,13.95,0,25.31,11.36,25.31,25.31Z"/><path class="f" d="M43.39,27.42c-1.66-1.3-4.13-.52-4.13-.52l1.04,1.12c-.87-.5-1.83-.53-2.65-.41C46.04,11.24,63.1,0,82.73,0c27.91,0,50.62,22.71,50.62,50.62v2.01c-1.55-1.53-3.46-2.68-5.57-3.32-.7-24.25-20.64-43.77-45.05-43.77-16.31,0-30.62,8.71-38.54,21.71-.26,.05-.53,.11-.8,.17Z"/></g></g><g><path class="i" d="M10.19,113.73c-2.27,.12-4.54,.14-6.81,.09-.16-5.85-.32-11.7-.48-17.56-.02-.74-2.93-.22-2.9,.78,.16,5.96,.33,11.92,.49,17.88,0,.33,.67,.33,.86,.34,2.55,.07,5.11,.04,7.66-.09,.6-.03,1.56-.2,1.92-.75,.35-.54-.3-.72-.74-.7Z"/><path class="i" d="M106.84,115.27c2.55,.07,5.11,.04,7.66-.09,.6-.03,1.56-.2,1.92-.75,.35-.54-.3-.72-.74-.7-2.27,.12-4.54,.14-6.81,.09-.16-5.85-.32-11.7-.48-17.56-.02-.74-2.93-.22-2.9,.78,.16,5.96,.33,11.92,.49,17.88,0,.33,.67,.33,.86,.34Z"/><path class="i" d="M15.45,96.39c.02-.25-.07-.41-.3-.52-.27-.14-.67-.14-.96-.1-.38,.05-.77,.16-1.1,.37-.2,.13-.53,.35-.55,.61-.09,1.06-.06,2.14,.13,3.2,.04,.24,.37,.36,.56,.4,.33,.07,.76,.03,1.08-.06,.34-.1,.71-.24,.97-.49,.17-.17,.33-.37,.29-.63-.11-.61-.16-1.23-.17-1.85,0-.31,.01-.62,.04-.93Z"/><path class="i" d="M30.52,114.84c-.67-2.21-1.34-4.42-1.96-6.64,.02-.19-.04-.36-.14-.51-.3-1.07-.58-2.14-.85-3.21-.42-1.68-.79-3.38-1.11-5.09-.14-.77-.14-1.73-.44-2.45-.25-.6-.92-.71-1.5-.67-.74,.05-1.61,.37-2.1,.95-.51,.61-.63,1.48-.83,2.22-.48,1.73-.95,3.46-1.4,5.19-.94,3.58-1.82,7.18-2.65,10.79-.22,.95,2.68,.49,2.89-.41,.21-.93,.44-1.86,.66-2.78,1.2,.22,2.51,.01,3.59-.39,.56-.21,1.09-.49,1.58-.82,.45,1.54,.92,3.07,1.38,4.6,.27,.9,3.17,.1,2.9-.78Zm-5.42-5.84c-.05,.06-.11,.11-.16,.17-.21,.18-.43,.35-.66,.5-.06,.03-.12,.07-.18,.1-.13,.06-.26,.12-.39,.18-.04,.01-.07,.02-.11,.04-.14,.04-.29,.08-.43,.11-.05,0-.1,.01-.14,.02-.15,.02-.3,.02-.45,.03-.02,0-.02,0-.03,0-.06,0-.13-.02-.18-.02-.07,0-.14-.03-.21-.03h0c-.13-.04-.25-.08-.37-.13-.02-.01-.05-.03-.09-.05-.02-.02-.05-.04-.07-.05,.32-1.3,.64-2.6,.97-3.9,.39-1.5,.78-3.01,1.19-4.51v-.02c.04,.15,.06,.3,.09,.44,.32,1.53,.68,3.05,1.07,4.56,.18,.67,.37,1.34,.56,2.01l-.03,.06c-.05,.06-.09,.13-.14,.2-.08,.1-.17,.21-.25,.31Z"/><path class="i" d="M98.42,111.01c.45,1.54,.92,3.07,1.38,4.6,.27,.9,3.17,.1,2.9-.78-.67-2.21-1.34-4.42-1.96-6.64,.02-.19-.04-.36-.14-.51-.3-1.07-.58-2.14-.85-3.21-.42-1.68-.79-3.38-1.11-5.09-.14-.77-.14-1.73-.44-2.45-.25-.6-.92-.71-1.5-.67-.74,.05-1.61,.37-2.1,.95-.51,.61-.63,1.48-.83,2.22-.48,1.73-.95,3.46-1.4,5.19-.94,3.58-1.82,7.18-2.65,10.79-.22,.95,2.68,.49,2.89-.41,.21-.93,.44-1.86,.66-2.78,1.2,.22,2.51,.01,3.59-.39,.56-.21,1.09-.49,1.58-.82Zm-2.53-1.06s-.07,.02-.11,.04c-.14,.04-.29,.08-.43,.11-.05,0-.1,.01-.14,.02-.15,.02-.3,.02-.45,.03-.02,0-.02,0-.03,0-.06,0-.13-.02-.18-.02-.07,0-.14-.03-.21-.03h0c-.13-.04-.25-.08-.37-.13-.02-.01-.05-.03-.09-.05-.02-.02-.05-.04-.07-.05,.32-1.3,.64-2.6,.97-3.9,.39-1.5,.78-3.01,1.19-4.51v-.02c.04,.15,.06,.3,.09,.44,.32,1.53,.68,3.05,1.07,4.56,.18,.67,.37,1.34,.56,2.01l-.03,.06c-.05,.06-.09,.13-.14,.2-.08,.1-.17,.21-.25,.31-.05,.06-.11,.11-.16,.17-.21,.18-.43,.34-.66,.5-.06,.03-.12,.07-.18,.1-.13,.06-.26,.12-.39,.18Z"/><path class="i" d="M35.68,114.91c.08-2.17,.17-4.34,.25-6.51,.36,.27,.76,.49,1.19,.61,.41,1.54,.93,3.19,2.21,4.23,1.56,1.27,3.86,1.28,5.74,.88,.38-.08,.75-.17,1.1-.35,.17-.09,.51-.27,.58-.48,.18-.53-.99-.4-1.18-.36-.21,.05-.42,.08-.64,.11h0s0,0-.01,0c-.09,0-.18,.01-.27,.02-.02,0-.19,0-.21,0-.08,0-.16,0-.23-.01-.09,0-.18-.01-.27-.03-.02,0-.11-.02-.14-.02-.75-.13-1.43-.46-1.98-.99-.88-.84-1.32-2.03-1.65-3.2,.29-.09,.57-.18,.84-.29,.99-.38,1.93-.96,2.7-1.68,1.46-1.35,2.32-3.22,2.14-5.21-.16-1.85-1.25-3.6-2.88-4.51-1.17-.65-2.6-.89-3.91-1.08-1.51-.22-3.03-.29-4.53-.05-.54,.09-1.52,.35-1.64,1.01-.06,.36,.21,.54,.53,.62-.23,5.84-.45,11.68-.68,17.52-.06,1.48,2.88,1.05,2.93-.23Zm4.11-16.73c1.46,.44,2.51,1.63,2.95,3.07,.43,1.41,.25,2.89-.56,4.13-.38,.57-.86,1.08-1.43,1.44-.32,.21-.42,.26-.75,.39-.24,.1-.51,.19-.75,.21-.73,.06-1.37-.86-1.76-1.39-.58-.8-.95-1.72-1.14-2.68-.03-.14-.11-.25-.22-.33,.07-1.82,.14-3.63,.21-5.45,1.17,.06,2.34,.27,3.44,.6Z"/><path class="i" d="M51.21,101.23c.2-1.15,.42-2.44,1.11-3.42,.11-.16,.24-.37,.42-.48,.04-.03,.06-.04,.08-.05,.49-.05,1.15,.45,1.48,.74,.99,.86,1.48,2.11,1.91,3.31,.33,.91,3.2,.07,2.9-.78-.92-2.57-2.55-4.98-5.61-4.75-1.38,.1-2.75,.69-3.65,1.76-.81,.96-1.17,2.23-1.41,3.44-.6,3.01-.76,6.23-.27,9.26,.41,2.59,1.85,4.79,4.69,4.89,3.23,.11,6.25-2.16,6.14-5.53-.03-.79-2.93-.26-2.9,.78,.04,1.06-.39,2.64-1.44,3.16-.82,.4-1.84-.31-2.36-.91-1.55-1.77-1.51-4.9-1.49-7.1,.01-1.44,.15-2.89,.4-4.31Z"/><path class="i" d="M71.47,113.22c.94-1.55,1.01-3.4,1.05-5.17,.04-2.13,.09-4.27,.08-6.4-.01-1.97-.38-4.24-2.21-5.37-1.48-.91-3.63-.69-5.09,.26-.7,.35-1.34,.82-1.82,1.45-1.18,1.53-1.55,3.65-1.8,5.52-.26,1.95-.29,3.95-.05,5.91,.21,1.72,.5,3.66,1.52,5.11,2.03,2.89,6.77,1.27,8.32-1.31Zm-1.8-7.85c-.02,1.81,.07,3.67-.16,5.47-.1,.81-.28,1.63-.66,2.36-.24,.46-.74,1.27-1.3,1.41-1.1,.28-2.03-1.66-2.32-2.54-.53-1.63-.77-3.4-.84-5.11-.08-1.86,.07-3.72,.46-5.54,.18-.83,.38-1.68,.72-2.47,.17-.41,.38-.81,.67-1.15,.08-.1,.17-.17,.26-.25,.15-.06,.27-.14,.39-.22,.2,0,.4,0,.61-.04,.32,.13,.6,.33,.84,.57,.57,.56,.91,1.29,1.1,2.06,.45,1.75,.25,3.67,.22,5.45Z"/><path class="i" d="M152.8,96.29c-1.48-.91-3.63-.69-5.09,.26-.7,.35-1.34,.82-1.82,1.45-1.18,1.53-1.55,3.65-1.8,5.52-.26,1.95-.29,3.95-.05,5.91,.21,1.72,.5,3.66,1.52,5.11,2.03,2.89,6.77,1.27,8.32-1.31,.94-1.55,1.01-3.4,1.05-5.17,.04-2.13,.09-4.27,.08-6.4-.01-1.97-.38-4.24-2.21-5.37Zm-.72,9.09c-.02,1.81,.07,3.67-.16,5.47-.1,.81-.28,1.63-.66,2.36-.24,.46-.74,1.27-1.3,1.41-1.1,.28-2.03-1.66-2.32-2.54-.53-1.63-.77-3.4-.84-5.11-.08-1.86,.07-3.72,.46-5.54,.18-.83,.38-1.68,.72-2.47,.17-.41,.38-.81,.67-1.15,.08-.1,.17-.17,.26-.25,.15-.06,.27-.14,.39-.22,.2,0,.4,0,.61-.04,.32,.13,.6,.33,.84,.57,.57,.56,.91,1.29,1.1,2.06,.45,1.75,.25,3.67,.22,5.45Z"/><path class="i" d="M91.56,118.81c-1.48-.91-3.63-.69-5.09,.26-.7,.35-1.34,.82-1.82,1.45-1.18,1.53-1.55,3.65-1.8,5.52-.26,1.95-.29,3.95-.05,5.91,.21,1.72,.5,3.66,1.52,5.11,2.03,2.89,6.77,1.27,8.32-1.31,.94-1.55,1.01-3.4,1.05-5.17,.04-2.13,.09-4.27,.08-6.4-.01-1.97-.38-4.24-2.21-5.37Zm-.72,9.09c-.02,1.81,.07,3.67-.16,5.47-.1,.81-.28,1.63-.66,2.36-.24,.46-.74,1.27-1.3,1.41-1.1,.28-2.03-1.66-2.32-2.54-.53-1.63-.77-3.4-.84-5.11-.08-1.86,.07-3.72,.46-5.54,.18-.83,.38-1.68,.72-2.47,.17-.41,.38-.81,.67-1.15,.08-.1,.17-.17,.26-.25,.15-.06,.27-.14,.39-.22,.2,0,.4,0,.61-.04,.32,.13,.6,.33,.84,.57,.57,.56,.91,1.29,1.1,2.06,.45,1.75,.25,3.67,.22,5.45Z"/><path class="i" d="M89.03,111.33c.32-1.51,.12-3.13-.68-4.46-.61-1.02-1.55-1.7-2.63-2.06,.55-.49,1.02-1.09,1.32-1.89,.85-2.23-.05-4.51-2.07-5.72-1.23-.74-2.7-1.02-4.12-1.08-.9-.04-1.81-.02-2.7,.09,.04-.36-.41-.47-.82-.47-.55,0-1.63,.21-1.92,.75-.08,.15-.1,.26-.07,.36-.04,.06-.06,.13-.06,.2,.23,4.24,.35,8.49,.37,12.74-.42,1.5-.43,3.14-.18,4.63,.01,.08,.04,.15,.08,.21-.03,.05-.08,.08-.1,.13-.29,.6,.26,1.17,.87,1.17,1.82,.02,3.63,.07,5.45,.07,1.5,0,3.11-.14,4.46-.86,1.52-.81,2.43-2.15,2.79-3.82Zm-9.88-13.4c.63,0,1.26,.02,1.87,.14,1.09,.22,2.12,.74,2.8,1.63,1.02,1.34,.84,3.89-.76,4.74-.92,.49-2.07,.54-3.05,.87-.52,.17-1.02,.39-1.49,.65-.05-2.68-.14-5.36-.26-8.04,.32,0,.64,0,.89,0Zm5.28,15.8c-.13,.04-.27,.07-.41,.1,0,0-.39,.05-.44,.06-.32,.03-.64,.05-.96,.06-1.24,.03-2.67,0-4.07-.04h0c.02-1.44,.02-2.86,.02-4.28,.05-.18,.09-.37,.15-.55,.46-1.27,1.17-1.98,2.47-2.32,.47-.12,.94-.25,1.4-.38,.28,.15,.65,.19,.93,.19-.23,0,.37,.06,.24,.03,.15,.03,.31,.09,.45,.15,.27,.12,.53,.29,.75,.48,.52,.44,.87,1.04,1.07,1.68,.39,1.27,.29,2.94-.49,4.06-.37,.53-.67,.64-1.11,.77Z"/><path class="i" d="M123.05,106.14s.05-.01,.06-.02h-.02l-.05,.02Z"/><path class="i" d="M53.21,136.32c-2.35,.04-4.7-.03-7.05-.17-.09-1.7-.15-3.39-.2-5.09,.09-.23,.21-.46,.35-.66,.2-.28,.49-.56,.69-.7,.08-.05,.15-.11,.23-.16,.03-.02,.04-.03,.05-.04,.02,0,.03-.02,.06-.03,.08-.04,.17-.08,.25-.13h.03c.11-.05,.21-.09,.32-.13h0c.06-.02,.38-.1,.52-.14-.07,.01-.14,.02,.05-.01h.02c.09-.02,.19-.04,.28-.06,.2-.03,.4-.07,.6-.09,.03,0,.09,0,.15-.01,.09,0,.08,0-.01,0h.12c.17,.01,.35,.07,.55,.16,.24,.11,.69,.05,.93,0,.36-.06,.78-.17,1.1-.35,.35-.19,.91-.59,.33-.85-1.12-.51-2.55-.23-3.71,.01-1.02,.21-2.02,.51-2.96,.96-.04-2.84-.02-5.68,.06-8.52,.08,0,.16-.02,.25-.03,.71-.06,1.43-.09,2.14-.08,.53,0,1.31,.06,1.93,.14,.74,.08,1.47,.21,2.2,.36,.67,.14,1.6-.26,1.89-.89,.32-.7-.29-1.11-.89-1.24-1.75-.37-3.52-.53-5.31-.52-.86,0-1.71,.06-2.56,.17-.47,.06-.94,.13-1.41,.21-.7,.12-1.21,.4-1.61,1.01-.13,.2-.11,.64,.06,.82,.12,.12,.24,.21,.37,.28-.11,3.73-.11,7.46,0,11.18-.28,.75-.33,1.56,.02,2.35,.02,.03,.04,.06,.07,.08,.04,1.05,.08,2.09,.14,3.14,.03,.54,.41,.95,.98,.99,2.91,.2,5.82,.28,8.74,.24,.65,0,1.52-.49,1.59-1.2,.07-.76-.76-1.01-1.35-1.01Z"/><path class="i" d="M48.47,129.07s.05-.01,.06-.02h-.02l-.05,.02Z"/><path class="i" d="M137.88,96.24c.19,4.24,.2,8.49,.04,12.73-.56-1.5-1.06-3.02-1.58-4.54-.54-1.57-1.1-3.14-1.76-4.66-.34-.79-.71-1.56-1.11-2.32-.33-.63-.63-1.22-1.35-1.44-1.44-.46-2.95,.54-3.12,2.01-.2,1.76-.02,3.65-.02,5.42,0,3.46-.01,6.92-.02,10.38-.27-.31-.77-.43-1.17-.42-2.35,.04-4.7-.03-7.05-.17-.09-1.7-.15-3.39-.2-5.09,.09-.23,.21-.46,.35-.66,.2-.28,.49-.56,.69-.7,.08-.05,.15-.11,.23-.16,.03-.02,.04-.03,.05-.04,.02,0,.03-.02,.06-.03,.08-.04,.17-.08,.25-.13h.03c.11-.05,.21-.09,.32-.13h0c.06-.02,.38-.1,.52-.14-.07,.01-.15,.03,.05-.01h.02c.09-.02,.19-.04,.28-.06,.2-.03,.4-.07,.6-.09,.03,0,.09,0,.15-.01,.09,0,.08,0-.01,0h.12c.17,.01,.35,.07,.55,.16,.24,.11,.69,.05,.93,0,.36-.06,.78-.17,1.1-.35,.35-.19,.91-.59,.33-.85-1.12-.51-2.55-.23-3.71,.01-1.02,.21-2.02,.51-2.96,.96-.04-2.84-.02-5.68,.06-8.52,.08,0,.16-.02,.25-.03,.71-.06,1.43-.09,2.14-.08,.53,0,1.31,.06,1.93,.14,.74,.08,1.47,.21,2.2,.36,.67,.14,1.6-.26,1.89-.89,.32-.7-.29-1.11-.89-1.24-1.75-.37-3.52-.53-5.31-.52-.86,0-1.71,.06-2.56,.17-.47,.06-.94,.13-1.41,.21-.7,.12-1.21,.4-1.61,1.01-.13,.2-.11,.64,.06,.82,.12,.12,.24,.21,.37,.28-.11,3.73-.11,7.46,0,11.18-.28,.75-.33,1.56,.02,2.35,.02,.03,.04,.06,.07,.08,.04,1.05,.08,2.09,.14,3.14,.03,.54,.41,.95,.98,.99,2.91,.2,5.82,.28,8.74,.24,.48,0,1.1-.28,1.4-.72v.1c0,1.43,2.92,.94,2.92-.26l.02-10.06c0-1.19,0-2.38,0-3.57,.9,2.17,1.63,4.41,2.39,6.63,.47,1.36,.96,2.72,1.51,4.05,.54,1.29,1.07,2.5,2.15,3.43,.65,.57,2.52,.01,2.59-.93,.44-6.09,.52-12.19,.25-18.29-.07-1.44-2.98-.92-2.92,.26Z"/><path class="i" d="M118.33,119.11c.19,4.24,.2,8.49,.04,12.73-.56-1.5-1.06-3.02-1.58-4.54-.54-1.57-1.1-3.14-1.76-4.66-.34-.79-.71-1.56-1.11-2.32-.33-.63-.63-1.22-1.35-1.44-1.44-.46-2.95,.54-3.12,2.01-.2,1.76-.02,3.65-.02,5.42,0,3.85-.02,7.7-.02,11.55,0,1.43,2.92,.94,2.92-.26l.02-10.06c0-1.19,0-2.38,0-3.57,.9,2.17,1.63,4.41,2.39,6.63,.47,1.36,.96,2.72,1.51,4.05,.54,1.29,1.07,2.5,2.15,3.43,.65,.57,2.52,.01,2.59-.93,.44-6.09,.52-12.19,.25-18.29-.07-1.44-2.98-.92-2.92,.26Z"/><path class="i" d="M39.61,119.96c-1.17-.73-2.78-.78-4.11-.85-1.27-.06-2.53-.01-3.79,.13-.62-.27-1.64-.07-2.13,.44-.31,.14-.58,.32-.62,.57-.04,.24,.11,.36,.32,.41-.25,5.68-.28,11.37-.08,17.06,.05,1.3,2.29,1.1,2.82,.19,1.19-.05,2.38-.13,3.56-.32,1.42-.22,2.91-.58,4.06-1.49,1.09-.87,1.44-2.17,1.66-3.48,.27-1.55,.4-3.13,.4-4.71,0-1.63-.14-3.26-.44-4.87-.22-1.17-.59-2.42-1.66-3.09Zm-.97,11.66c-.13,1.1-.25,2.28-.68,3.31-.46,1.1-1.15,1.27-2.24,1.42-1.2,.17-2.41,.23-3.62,.23-.17-5.37-.13-10.75,.1-16.11,.59-.03,1.18-.03,1.77,0,1.02,.06,2.38,.06,3.22,.75,.76,.63,.99,1.67,1.17,2.6,.24,1.28,.37,2.59,.42,3.89,.05,1.3,0,2.61-.15,3.91Z"/><path class="i" d="M55.17,119.48c.05,6.37,.1,12.75,.15,19.12,.01,1.3,2.92,.73,2.91-.32-.05-6.37-.1-12.75-.15-19.12-.01-1.3-2.92-.73-2.91,.32Z"/><path class="i" d="M124,119.48l.15,19.12c.01,1.3,2.92,.73,2.91-.32l-.15-19.12c-.01-1.3-2.92-.73-2.91,.32Z"/><path class="i" d="M77.31,128.08c-1.25-.95-2.82-1.07-4.15-1.82-1.15-.65-1.98-1.98-1.95-3.31,.03-1.22,.99-2.73,2.37-2.48,1.46,.27,3.23,1.77,3.3,3.33,.07,1.58,3.01,1.19,2.94-.19-.14-3-3.25-5.46-6.19-5.43-2.88,.03-5.56,2.54-5.35,5.49,.1,1.46,.82,2.76,1.89,3.74,1.25,1.14,2.88,1.26,4.32,2.01,2.22,1.15,3.25,4.34,1.58,6.35-2.11,2.54-5.61,.18-5.24-2.75,.2-1.54-2.77-1.2-2.94,.19-.36,2.8,1.76,5.33,4.46,5.86,2.8,.55,5.85-1.15,7.03-3.72,1.17-2.56,.11-5.63-2.07-7.28Z"/><path class="i" d="M104.55,129.2c-.12,.04-.25,.12,0,0h0Z"/><path class="i" d="M108.14,127.94c-.03-.12-.13-.21-.24-.28,0-.08,0-.16,0-.24,.01-.31-1.2-.26-2.06,.06-1.42,.09-2.83,.54-4,1.32-1.31,.88-3.3,2.85-2,4.51,.16,.2,.56,.24,.78,.25,.37,.01,.8-.08,1.14-.23,.39-.18,1.18-.64,.78-1.15-.05-.06-.05-.06-.05-.05,0,0,0-.02-.02-.06-.03-.07-.05-.13-.07-.2-.04-.15-.05-.27-.04-.35,.04-.34,.12-.53,.27-.78,.09-.15,.2-.29,.31-.43,.03-.03,.05-.06,.08-.09,0,0,.1-.1,.11-.12,.1-.1,.21-.2,.32-.29,.02-.02,.07-.05,.11-.08,0,0,0-.02,.07-.06,0,0,.02-.01,.02-.02h0c.12-.07,.24-.14,.37-.22,.02-.01,.05-.03,.08-.04,.03-.02,.07-.03,.1-.04,.13-.06,.28-.1,.41-.16-.03,.01-.03,.02-.05,.03h0c.07-.02,.14-.04,.21-.06h.03s.09-.02,.13-.03h.04c-.06,1.44-.11,2.88-.18,4.32-.07,1.3-.19,3.03-1.33,3.88h0c-.11,0-.22,0-.33,0-.35-.04-.7-.17-1.01-.33-.54-.28-1.03-.69-1.42-1.16-1.04-1.23-1.45-2.86-1.63-4.42-.35-3.12-.45-6.8,.87-9.72,.15-.34,.32-.68,.54-.98,.13-.17,.27-.34,.43-.48,.07-.04,.12-.07,.15-.1,.54,0,1.14,.24,1.57,.51,1.25,.77,2.02,2.05,2.56,3.38,.3,.72,3.13-.2,2.9-.78-.54-1.32-1.32-2.63-2.51-3.46-1.22-.84-2.74-1.04-4.18-.78-1.6,.29-3.06,1.02-3.93,2.44-.87,1.41-1.19,3.14-1.35,4.76-.17,1.76-.13,3.58,0,5.34,.12,1.67,.47,3.36,1.45,4.75,1.83,2.61,5.42,2.89,8.02,1.21,1.4-.9,1.88-2.35,2.04-3.94,.17-1.66,.19-3.35,.24-5.02,.16-.16,.33-.36,.27-.6Z"/><path class="i" d="M103.64,129.66s-.04,.04-.07,.06c0,0,.05-.02,.08-.07h-.01Z"/></g></g></g></g></svg>