<svg id="Grafica" xmlns="http://www.w3.org/2000/svg" viewBox="0 0 200.48 280.72"><defs><style>.cls-1{fill:#18243a;}.cls-2{fill:#5e7098;}.cls-3{fill:#55b891;}</style></defs><path class="cls-1" d="M58,188.58A5.27,5.27,0,0,1,59.19,192a6.18,6.18,0,0,1-1.11,3.78,6.45,6.45,0,0,1-2.9,2.2,10.5,10.5,0,0,1-3.94.71H44.15V174.84h6.17a9.33,9.33,0,0,1,5.67,1.5,5.26,5.26,0,0,1,2,4.51,6.28,6.28,0,0,1-.84,3.28,5.83,5.83,0,0,1-2.39,2.19A7.57,7.57,0,0,1,58,188.58Zm-10.65-3.32H51a3.52,3.52,0,0,0,2.78-1,3.92,3.92,0,0,0,.94-2.71,3.23,3.23,0,0,0-1.12-2.7,4.92,4.92,0,0,0-3.13-.89h-3.1Zm7.19,9.52A3.16,3.16,0,0,0,55.89,192a3,3,0,0,0-1.47-2.77,6.74,6.74,0,0,0-3.54-.89H47.35v7.36h3.76A5.93,5.93,0,0,0,54.54,194.78Z"/><path class="cls-1" d="M76.53,192.42H67.37l-2.54,6.26H61.66l10.42-24.83h.2L82.7,198.68H79Zm-1.09-2.77-3.39-8.71-3.53,8.71Z"/><path class="cls-1" d="M108.58,174.84v24.63h-.11l-20-17.77.07,17H84.87V174.12h.19l20,18-.08-17.25Z"/><path class="cls-1" d="M128.29,198.3a11.05,11.05,0,0,1-3.84.65,12.61,12.61,0,0,1-6.45-1.62,11.25,11.25,0,0,1-4.28-4.35,12.38,12.38,0,0,1-1.5-6,13.17,13.17,0,0,1,1.51-6.34,11.27,11.27,0,0,1,4.21-4.42,11.62,11.62,0,0,1,6.08-1.6,13.15,13.15,0,0,1,6.89,1.91l-1.28,3a9.79,9.79,0,0,0-5.51-1.84,7.88,7.88,0,0,0-4.27,1.22,8.9,8.9,0,0,0-3.13,3.31,9.28,9.28,0,0,0-1.17,4.6,10,10,0,0,0,1.07,4.65,7.88,7.88,0,0,0,3.07,3.25,9.52,9.52,0,0,0,10.17-.65l1.35,2.87A14,14,0,0,1,128.29,198.3Z"/><path class="cls-1" d="M150.16,192.42H141l-2.53,6.26h-3.17l10.42-24.83h.2l10.42,24.83h-3.7Zm-1.09-2.77-3.39-8.71-3.53,8.71Z"/><path class="cls-2" d="M84.87,201h2.51a5.32,5.32,0,0,1,2.83.68,4.15,4.15,0,0,1,1.64,1.74,5.23,5.23,0,0,1,.51,2.27,4.45,4.45,0,0,1-.62,2.34,4.27,4.27,0,0,1-1.66,1.58,4.8,4.8,0,0,1-2.25.55h-3Zm2.71,8a4.12,4.12,0,0,0,1.82-.4,3,3,0,0,0,1.24-1.16,3.5,3.5,0,0,0,.45-1.81,3.42,3.42,0,0,0-.47-1.85,3,3,0,0,0-1.24-1.17,3.59,3.59,0,0,0-1.68-.4H86.1V209Z"/><path class="cls-2" d="M100.38,201v1.18H95.65V205h4.22v1.18H95.65V209h4.9v1.19H94.42V201Z"/><path class="cls-2" d="M103.92,201v8h4.66v1.19h-5.89V201Z"/><path class="cls-3" d="M60,212.46v3.06h-6.4V236.3h-3.2V215.52H44.15v-3.06Z"/><path class="cls-3" d="M78.84,212.46v3.06H66.54v7.26h11v3.07h-11v7.35H79.3v3.1h-16V212.46Z"/><path class="cls-3" d="M108.58,211.7v24.6h-3.16V220.87L96.65,233.3h-.07L88,221.3v15h-3.1V211.7h0l11.74,16.62,11.9-16.62Z"/><path class="cls-3" d="M127.92,214.4a6.92,6.92,0,0,1,2.19,5.45,8.78,8.78,0,0,1-.81,3.75,6.39,6.39,0,0,1-2.6,2.84,8.59,8.59,0,0,1-4.53,1.09h-3.53v8.77h-3.2V212.46h6.4A8.88,8.88,0,0,1,127.92,214.4Zm-3,9.3a4.16,4.16,0,0,0,1.54-1.76,5.1,5.1,0,0,0,.46-2,4.65,4.65,0,0,0-1.12-3,4.33,4.33,0,0,0-3.5-1.34h-3.69v8.91h3.53A4.81,4.81,0,0,0,125,223.7Z"/><path class="cls-3" d="M133.61,218.33a12.57,12.57,0,0,1,4.43-4.47,11.95,11.95,0,0,1,12.15,0,12.6,12.6,0,0,1,4.47,4.47,12,12,0,0,1,0,12.16,12.2,12.2,0,0,1-4.47,4.44,11.92,11.92,0,0,1-6.08,1.63A12.07,12.07,0,0,1,132,224.4,11.76,11.76,0,0,1,133.61,218.33ZM136.44,229a9,9,0,0,0,3.25,3.29A8.76,8.76,0,0,0,151.86,229a9.46,9.46,0,0,0,0-9.15,9,9,0,0,0-3.23-3.33,8.61,8.61,0,0,0-4.48-1.22,8.48,8.48,0,0,0-4.49,1.24,8.83,8.83,0,0,0-3.21,3.35,9.26,9.26,0,0,0-1.17,4.58A9,9,0,0,0,136.44,229Z"/><path class="cls-1" d="M68.64,145.2a5.85,5.85,0,0,1-1.92-3.71,44.43,44.43,0,0,1-.55-8.17v-16.2q0-11.25-8.17-16.94a17.8,17.8,0,0,0,5.82-6.43q2.34-4.22,2.35-12V67.28a44.23,44.23,0,0,1,.55-8.16,5.83,5.83,0,0,1,1.92-3.71,6.69,6.69,0,0,1,4-1h5.56V44.15H70.25a46.71,46.71,0,0,0-8.72.62,8.32,8.32,0,0,0-5.2,3.83Q54.17,51.83,54.17,59V79.65a21.57,21.57,0,0,1-2.54,10.63A8.33,8.33,0,0,1,44.15,95v10.14a8.38,8.38,0,0,1,7.48,4.7,21.38,21.38,0,0,1,2.54,10.52V140q0,8,2.16,11.57t5.08,4.14a46.26,46.26,0,0,0,8.84.62h7.91V146.19H72.6A6.69,6.69,0,0,1,68.64,145.2Z"/><path class="cls-1" d="M148.84,90.28a21.57,21.57,0,0,1-2.53-10.63V59q0-7.17-2.17-10.39A8.28,8.28,0,0,0,139,44.77a46.71,46.71,0,0,0-8.72-.62h-7.91V54.42h5.56a6.69,6.69,0,0,1,4,1,5.87,5.87,0,0,1,1.92,3.71,44.23,44.23,0,0,1,.55,8.16V81.75q0,7.78,2.35,12a17.87,17.87,0,0,0,5.81,6.43q-8.16,5.68-8.16,16.94v16.2a44.43,44.43,0,0,1-.55,8.17,5.9,5.9,0,0,1-1.92,3.71,6.69,6.69,0,0,1-4,1h-5.56v10.14h7.91a46.26,46.26,0,0,0,8.84-.62q2.91-.61,5.07-4.14T146.31,140V120.34a21.38,21.38,0,0,1,2.53-10.52,8.4,8.4,0,0,1,7.49-4.7V95A8.34,8.34,0,0,1,148.84,90.28Z"/><path class="cls-3" d="M122.32,123.52v-.06H118.7a2.83,2.83,0,0,1-1.21-.44,3,3,0,0,1-1-1.88,22.25,22.25,0,0,1-.28-4.14v-8.21q0-5.7-4.14-8.58a9,9,0,0,0,3-3.26,12.69,12.69,0,0,0,1.19-6.08V83.54a22.25,22.25,0,0,1,.28-4.14,3,3,0,0,1,1-1.88,3.43,3.43,0,0,1,2-.5h2.82v-5.2H78.16V77H81a3.43,3.43,0,0,1,2,.5,3,3,0,0,1,1,1.88,22.25,22.25,0,0,1,.28,4.14v7.33A12.69,12.69,0,0,0,85.43,97a9,9,0,0,0,2.95,3.26q-4.14,2.88-4.14,8.58V117a22.25,22.25,0,0,1-.28,4.14A3,3,0,0,1,83,123a2.88,2.88,0,0,1-1.21.44H78.16v5.2h44.16ZM91.6,95.2a11,11,0,0,1-1.28-5.39V79.34A18,18,0,0,0,90.18,77H110.3a18,18,0,0,0-.14,2.32V89.81a10.94,10.94,0,0,1-1.29,5.39,4.23,4.23,0,0,1-3.79,2.38h0v5.13a4.24,4.24,0,0,1,3.79,2.39,10.74,10.74,0,0,1,1.29,5.32v10a19.91,19.91,0,0,0,.21,3.07H90.11a19.91,19.91,0,0,0,.21-3.07v-10a10.85,10.85,0,0,1,1.28-5.32,4.27,4.27,0,0,1,3.8-2.39V97.58A4.26,4.26,0,0,1,91.6,95.2Z"/></svg>