<?xml version="1.0" encoding="UTF-8"?><svg xmlns="http://www.w3.org/2000/svg" viewBox="0 0 135.16 138.39"><defs><style>.d{fill:#eb4000;}.e{fill:#fff;}.f{fill:orange;}.g{fill:#108c39;}.h{fill:#206fc6;}.i{fill:#50b4f8;}</style></defs><g id="a"/><g id="b"><g id="c"><g><g><path class="h" d="M94.15,132.57c0,3.2-2.68,5.82-5.88,5.82h-.68c-3.2,0-5.82-2.62-5.82-5.82v-8.73c0-3.22,2.62-5.85,5.85-5.85h.68c3.22,0,5.85,2.62,5.85,5.85v8.73Zm-3.02-8.73c0-1.57-1.28-2.85-2.85-2.85h-.68c-1.57,0-2.85,1.28-2.85,2.85v8.73c0,1.57,1.28,2.85,2.85,2.85h.68c1.57,0,2.85-1.28,2.85-2.85v-8.73Z"/><path class="h" d="M135.16,132.57c0,3.2-2.68,5.82-5.88,5.82h-.68c-3.2,0-5.82-2.62-5.82-5.82v-8.73c0-3.22,2.62-5.85,5.85-5.85h.68c3.22,0,5.85,2.62,5.85,5.85v8.73Zm-3.02-8.73c0-1.57-1.28-2.85-2.85-2.85h-.68c-1.57,0-2.85,1.28-2.85,2.85v8.73c0,1.57,1.28,2.85,2.85,2.85h.68c1.57,0,2.85-1.28,2.85-2.85v-8.73Z"/><path class="h" d="M12.33,132.57c0,3.2-2.63,5.82-5.82,5.82h-.68c-3.2,0-5.82-2.62-5.82-5.82v-8.73c0-3.22,2.62-5.85,5.85-5.85h.68c3.22,0,5.85,2.62,5.85,5.85v.2h-2.97v-.2c0-1.57-1.28-2.85-2.85-2.85h-.68c-1.57,0-2.85,1.28-2.85,2.85v8.73c0,1.57,1.28,2.85,2.85,2.85h.68c1.57,0,2.85-1.28,2.85-2.85v-.2h2.97v.2h-.06Z"/><path class="h" d="M20.19,118.22h0c1.12,0,2.09,.76,2.36,1.84l4.53,18.13h-3.05l-1.2-4.85c-.97,.77-2.2,1.23-3.54,1.23h-2.05l-.91,3.62h-3.05l4.56-18.13c.27-1.08,1.24-1.84,2.36-1.84Zm-.01,4.59l-2.2,8.79h1.31c.77,0,1.46-.31,1.97-.83,.29-.29,.51-.66,.66-1.06l-1.74-6.91Z"/><path class="h" d="M28.11,118.22l3.85,15.38,3.85-15.38h3.05l-4.53,18.13c-.27,1.08-1.24,1.84-2.36,1.84h0c-1.12,0-2.09-.76-2.36-1.84l-4.53-18.13h3.02Z"/><path class="h" d="M43.82,118.22h0c1.12,0,2.09,.76,2.36,1.84l4.53,18.13h-3.05l-1.2-4.85c-.97,.77-2.2,1.23-3.54,1.23h-2.05l-.91,3.62h-3.05l4.56-18.13c.27-1.08,1.24-1.84,2.36-1.84Zm-.01,4.59l-2.2,8.79h1.31c.77,0,1.46-.31,1.97-.83,.29-.29,.51-.66,.66-1.06l-1.74-6.91Z"/><path class="h" d="M62.75,138.19h-10.33v-19.97h2.97v17.01h7.36v2.97Z"/><path class="h" d="M74.83,138.19h-10.33v-19.97h2.97v17.01h7.36v2.97Z"/><path class="h" d="M79.54,118.22v2.45l-.51,2.65h-1.37l-.51-2.65v-2.45h2.4Z"/><path class="h" d="M100.65,132.32c-.63-.11-1.23-.34-1.77-.66v6.53h-2.97v-19.97h6.51c3.22,0,5.85,2.62,5.85,5.85v2.48c0,2.8-2,5.14-4.62,5.71v.11c0,1.57,1.28,2.85,2.85,2.85h1.77v2.97h-1.77c-3.22,0-5.85-2.62-5.85-5.85v-.03Zm4.62-8.28c0-1.57-1.23-2.85-2.8-2.85h-3.59v5.45c0,1.51,1.25,2.77,2.77,2.77h.77c1.57,0,2.85-1.28,2.85-2.85v-2.51Z"/><path class="h" d="M109.99,118.19h12.33v2.97h-4.68v17.04h-2.97v-17.01h-4.68v-3Z"/></g><g><path class="e" d="M69.74,14.02l-2.33-2.05,2.23-1.3,1.27,.8,6.57,3.97,.57,.34c.34,.2,.64,.38,.95,.57,.65,.4,1.28,.8,1.91,1.21l1.02,6.27c-.58-.13-1.15-.22-1.71-.27-.31-.32-.63-.64-.95-.96-1.96-1.93-4.02-3.73-6.01-5.46-1.15-1-2.34-2.04-3.46-3.06l-.03-.03-.03-.03Z"/><path class="h" d="M104.98,59.51c.27,.46,.36,.97,.29,1.45,0,.1-.03,.2-.06,.29-.15,.57-.51,1.09-1.07,1.41-1.1,.64-2.53,.29-3.18-.8-.26-.43-.36-.95-.3-1.47l.06-.3c.16-.62,.54-1.15,1.06-1.45l.06-.03c1.11-.61,2.52-.2,3.14,.9Z"/><path class="h" d="M102.18,40.86c.31,.52,.4,1.16,.25,1.77-.16,.62-.55,1.15-1.07,1.46l-.05,.02c-1.12,.62-2.51,.24-3.15-.88-.63-1.1-.26-2.52,.84-3.17,1.07-.63,2.53-.26,3.18,.8Z"/><path class="i" d="M94.47,24.96c.37-.7,.65-1.41,.87-2.12,.74,.67,1.46,1.35,2.18,2.05l-3.05,.07Z"/><path class="h" d="M89.88,83.14h-.03c-.28,.17-.58,.27-.88,.31-.1,.01-.21,.02-.31,.02-.77,0-1.52-.39-1.96-1.09-.33-.52-.43-1.17-.27-1.79,.11-.47,.36-.88,.71-1.19,.12-.11,.24-.2,.38-.28,.32-.18,.68-.28,1.03-.29,.85-.04,1.7,.38,2.14,1.13,.64,1.1,.28,2.52-.81,3.18Z"/><path class="g" d="M97.52,24.89l3.91-.1s-.52,1.18-1.56,2.54c-.81,1.07-1.94,2.26-3.38,3.07-.71,.4-1.5,.71-2.36,.87-.87-1.1-1.94-2.14-3.21-3.1-.36-.28-.74-.56-1.14-.82-.34-.23-.69-.45-1.05-.67-.18-.12-.37-.23-.56-.34-.41-.23-.81-.45-1.21-.65-.78-.41-1.55-.76-2.31-1.05-.02-.01-.05-.02-.07-.03-.9-.33-1.78-.6-2.65-.78l-1.02-6.27-.25-1.57s3.25,.93,5.41,3.37l1.8-2.58,5.38-7.71s4.09,7.11,2.09,13.77c-.22,.71-.5,1.42-.87,2.12l3.05-.07Z"/><path class="d" d="M54.92,61.45c1.59,.88,3.43,1.2,5.25,.91-.65-1.72-1.86-3.16-3.41-4.1l10-17.31c2.37,1.48,5.17,2.15,7.98,1.9-1.18-2.56-3.17-4.65-5.64-5.96l2.49-4.31,.1-.19s1.51-3.19,4.85-4.25c.48-.15,.98-.25,1.49-.3,2.32-.25,5,.49,7.99,2.22,.27,.16,.53,.32,.79,.48h0c3.17,2,5.05,4.27,5.6,6.78,0,.02,0,.03,0,.05,.73,3.39-1.24,6.24-1.26,6.26l-.06,.09-.03,.06-8.91,15.42c-2.28-1.39-4.9-2.15-7.59-2.19,1.38,2.32,3.35,4.2,5.69,5.48l-6.19,10.71c-.7,1.21-1.47,2.38-2.29,3.49h-.01c-4.36-.35-8.12-2.17-11.42-5.1-2.71-2.41-4.74-5.28-6.41-8.39,.21-.41,.44-.82,.67-1.23l.3-.52Z"/><path class="i" d="M79.27,22.6c.32,.32,.64,.64,.95,.96-1.77-.18-3.46,0-5.06,.51-.24,.08-.47,.16-.69,.26-2.53-2.35-5.2-4.55-7.75-6.88l-5.2-4.58c-.92-.81-.78-2.29,.28-2.9L78.82,0l5.29,9.03-4.27,2.5c.6,.36,1.08,.64,1.55,.94,2.22,1.37,4.39,2.8,6.48,4.31l-1.8,2.58c-2.16-2.44-5.41-3.37-5.41-3.37l.25,1.57c-.63-.41-1.26-.81-1.91-1.21-.31-.19-.61-.37-.95-.57l-.57-.34-6.57-3.97-1.27-.8-2.23,1.3,2.33,2.05,.03,.03,.03,.03c1.12,1.02,2.31,2.06,3.46,3.06,1.99,1.73,4.05,3.53,6.01,5.46Z"/><path class="f" d="M53.94,63.19c-.7-1.31-1.34-2.66-1.94-4.04-.1-.24-.2-.47-.3-.71l11.57-20.04,4.56-7.9c.36-.74,2.37-4.49,6.64-6.17,.22-.1,.45-.18,.69-.26,1.6-.52,3.29-.69,5.06-.51,.56,.05,1.13,.14,1.71,.27,.87,.18,1.75,.45,2.65,.78,.02,.01,.05,.02,.07,.03,.76,.29,1.53,.64,2.31,1.05,.4,.2,.8,.42,1.21,.65,.19,.11,.38,.22,.56,.34,.36,.22,.71,.44,1.05,.67,.4,.26,.78,.54,1.14,.82,1.27,.96,2.34,2,3.21,3.1,1.27,1.6,2.11,3.34,2.51,5.2,.58,2.74,.07,5.18-.59,6.93-.51,1.38-1.1,2.32-1.32,2.64l-1.47,2.54-9.07,15.71-6.39,11.06c-.2,.34-.4,.68-.61,1.02-1.22,.25-2.49,.38-3.78,.38h-.41c-.41-.01-.81-.03-1.21-.06,.82-1.11,1.59-2.28,2.29-3.49l6.19-10.71c-2.34-1.28-4.31-3.16-5.69-5.48,2.69,.04,5.31,.8,7.59,2.19l8.91-15.42,.03-.06,.06-.09s1.99-2.87,1.26-6.26c0-.02,0-.03,0-.05-.55-2.51-2.43-4.78-5.6-6.77h0c-.26-.17-.52-.33-.79-.49-2.99-1.73-5.67-2.47-7.99-2.22-.51,.05-1.01,.15-1.49,.3-3.34,1.06-4.84,4.22-4.85,4.25l-.1,.19-2.49,4.31c2.47,1.31,4.46,3.4,5.64,5.96-2.81,.25-5.61-.42-7.98-1.9l-10,17.31c1.55,.94,2.76,2.38,3.41,4.1-1.82,.29-3.66-.03-5.25-.91l-.3,.52c-.23,.41-.46,.82-.67,1.23,0,0,0,0,0,0Z"/><path class="h" d="M66.06,83.23s-.05-.08-.09-.12h0c-.65-1.01-1.99-1.37-3.05-.79l-.06,.04c-.52,.3-.9,.83-1.06,1.44-.16,.62-.07,1.27,.24,1.78,.12,.2,.26,.37,.42,.51,.74,.67,1.86,.81,2.76,.29,1.11-.65,1.48-2.04,.84-3.15Z"/><path class="d" d="M50.15,93.81c-.41,.2-.75,.07-.92-.03s-.45-.33-.48-.78c-.13-2.12-.21-4.81-.08-7.82,2.35,2.05,4.97,3.74,7.83,5.07-2.38,1.49-4.57,2.67-6.35,3.56Z"/><path class="f" d="M49.23,93.78c.17,.1,.51,.23,.92,.03,1.78-.89,3.97-2.07,6.35-3.56h.01c1.57,.75,3.21,1.37,4.94,1.9-3.53,2.41-6.85,4.24-9.39,5.5-1.58,.79-3.44,.74-4.98-.15-1.53-.88-2.51-2.47-2.62-4.24-.2-3.13-.27-7.43,.2-12.24,1.23,1.52,2.57,2.91,4.01,4.16-.13,3.01-.05,5.7,.08,7.82,.03,.45,.31,.68,.48,.78Z"/><path class="h" d="M51.02,70.94c-.03-.06-.06-.11-.1-.16h0c-.32-.49-.78-.83-1.34-.98-.61-.17-1.24-.09-1.79,.23-1.08,.63-1.46,2.08-.85,3.17,.61,1.07,2.02,1.49,3.11,.91h.02s.03-.01,.04-.02l.05-.03c.73-.43,1.14-1.22,1.14-2.02,0-.37-.09-.75-.28-1.1Z"/><path class="i" d="M111.5,47.14c-1.04-4.76-3.24-9-6.04-12.94-1.73-2.44-3.59-4.72-5.59-6.87-.81,1.07-1.94,2.26-3.38,3.07,1.92,2.06,3.66,4.21,5.25,6.44,2.76,3.89,4.5,7.58,5.3,11.27,1,4.58,1.1,8.97,.25,13.24l-.06,.33c-1.09,5.32-3.63,10.44-7.63,15.43-2.51,3.13-5.42,5.67-8.66,7.57-.34,.2-.69,.4-1.05,.58-1.02,.55-2.08,1.04-3.16,1.46-6.83,2.68-13.74,3.32-20.58,1.91-.9-.17-1.8-.39-2.7-.65-.83-.24-1.64-.5-2.43-.79-4.72-1.71-8.65-4.33-11.86-7.92h0c-1.11-1.22-2.1-2.53-3.03-3.96-.18-.28-.36-.56-.52-.85-.01,0-.01,0-.01,0-1.96-3.19-3.58-6.85-4.95-11.16-1.07-3.33-1.9-6.79-2.52-10.37-.01-.08-.03-.15-.04-.23-.65-3.8-1.04-7.73-1.17-11.75-.02-.38-.03-.75-.05-1.17l-.03-.6-.33-7.57-.07-1.5,2.37-1.39c.64,2.97,.79,3.67,.82,3.82,1.27,6.99,2.75,13.11,4.53,18.67,1.1,3.45,2.3,6.69,3.65,9.77,.36,.82,.75,1.68,1.19,2.58h0c.75,1.56,1.64,3.18,2.7,4.81h0c1.48,2.3,3.32,4.58,5.63,6.64,2.46,2.19,5.1,3.81,7.91,4.87t.02,.01h.01c1,.38,2.02,.67,3.07,.9,1.49,.33,3.01,.51,4.58,.54,.23,0,.46,0,.69,0,1.93-.02,3.84-.26,5.72-.74,1.89-.48,3.76-1.2,5.63-2.16,.54-.27,1.09-.57,1.63-.89l.3-.18c.51-.31,1.01-.62,1.49-.95,3.38-2.28,5.93-4.98,7.78-8.23,1.44-2.52,2.39-5.16,2.83-7.89,.76-4.59,.12-9.45-1.92-14.55-.31-.78-.65-1.56-1.02-2.33-.51,1.38-1.1,2.32-1.32,2.64l-1.47,2.54c2.09,5.86,2.17,11.66-1.06,17.33-1.84,3.22-4.5,5.63-7.66,7.52-.09,.06-.17,.11-.26,.16-2.25,1.32-4.6,2.29-7.09,2.78-1.22,.25-2.49,.38-3.78,.38h-.41c-.41-.01-.81-.03-1.21-.06h-.01c-4.36-.35-8.12-2.17-11.42-5.1-2.71-2.41-4.74-5.28-6.41-8.39-.01,0-.01-.01-.01-.01-.7-1.31-1.34-2.66-1.94-4.04-.1-.24-.2-.47-.3-.71-3.66-8.59-5.92-17.6-7.58-26.76-.04-.21-1.02-4.75-1.65-7.67-.26-1.2-1.61-1.79-2.67-1.17l-17.07,9.99,5.29,9.03s3.73-2.18,4.26-2.49c.03,.66,.06,1.19,.07,1.72,.27,8.04,1.51,15.92,3.95,23.59,1.47,4.61,3.36,9.03,6,13.11,.74,1.14,1.52,2.21,2.36,3.23,1.23,1.52,2.57,2.91,4.01,4.16,2.35,2.05,4.97,3.74,7.83,5.07h.01c1.57,.75,3.21,1.37,4.94,1.9,.01,0,.01-.01,.02-.01,.24,.08,.49,.16,.74,.23,8.86,2.52,17.62,1.95,26.18-1.4,1.7-.66,3.32-1.45,4.86-2.35,3.8-2.22,7.1-5.14,9.91-8.65,7.75-9.66,11.03-20.51,8.34-32.83Z"/><path class="h" d="M42.53,54.26c-1.1,.6-2.54,.19-3.15-.9-.11-.2-.19-.41-.24-.62,0-.08-.02-.15-.03-.22-.12-.9,.31-1.83,1.14-2.32,.54-.31,1.2-.39,1.81-.21,.61,.17,1.13,.59,1.41,1.13,.04,.08,.08,.17,.12,.26,.39,1.05-.02,2.28-1,2.85l-.06,.03Z"/><path class="e" d="M107.04,48.11c-.8-3.69-2.54-7.38-5.3-11.27-1.59-2.23-3.33-4.38-5.25-6.44-.71,.4-1.5,.71-2.36,.87,1.27,1.6,2.11,3.34,2.51,5.2,.58,2.74,.07,5.18-.59,6.93,.37,.77,.71,1.55,1.02,2.33,2.04,5.1,2.68,9.96,1.92,14.55-.44,2.73-1.39,5.37-2.83,7.89-1.85,3.25-4.4,5.95-7.78,8.23-.48,.33-.98,.64-1.49,.95l-.3,.18c-.54,.32-1.09,.62-1.63,.89-1.87,.96-3.74,1.68-5.63,2.16-1.88,.48-3.79,.72-5.72,.74-.23,0-.46,0-.69,0-1.57-.03-3.09-.21-4.58-.54-1.05-.23-2.07-.52-3.07-.9h-.01s-.01-.01-.02-.01c-2.81-1.06-5.45-2.68-7.91-4.87-2.31-2.06-4.15-4.34-5.63-6.63h0c-1.06-1.64-1.95-3.26-2.7-4.81h0c-.44-.91-.83-1.77-1.19-2.59-1.35-3.08-2.55-6.32-3.65-9.77-1.78-5.56-3.26-11.68-4.53-18.67-.03-.15-.18-.85-.82-3.82l-2.37,1.39,.07,1.5,.33,7.57,.03,.6c.02,.42,.03,.79,.05,1.17,.13,4.02,.52,7.95,1.17,11.75,0,.08,.03,.15,.04,.23,.62,3.58,1.45,7.04,2.52,10.37,1.37,4.31,2.99,7.97,4.95,11.16,0,0,0,0,.01,0,.16,.29,.34,.57,.52,.85,.93,1.43,1.92,2.74,3.03,3.95h0c3.21,3.6,7.14,6.22,11.86,7.93,.79,.29,1.6,.55,2.43,.79,.9,.26,1.8,.48,2.7,.65,6.84,1.41,13.75,.77,20.58-1.91,1.08-.42,2.14-.91,3.16-1.46,.36-.18,.71-.38,1.05-.58,3.24-1.9,6.15-4.44,8.66-7.57,4-4.99,6.54-10.11,7.63-15.43l.06-.33c.85-4.27,.75-8.66-.25-13.24Zm-64.45,6.12l-.06,.03c-1.1,.6-2.54,.19-3.15-.9-.11-.2-.19-.41-.24-.62-.01-.08-.02-.15-.03-.22-.12-.9,.31-1.83,1.14-2.32,.54-.31,1.2-.39,1.81-.21,.61,.17,1.13,.59,1.41,1.13,.04,.08,.08,.17,.12,.26,.39,1.05-.02,2.28-1,2.85Zm7.57,19.83l-.05,.03s-.03,.01-.04,.01h-.02c-1.09,.59-2.5,.17-3.11-.9-.61-1.09-.23-2.54,.85-3.17,.55-.32,1.18-.4,1.79-.23,.56,.15,1.02,.49,1.34,.97h0c.04,.06,.07,.11,.1,.17,.19,.35,.28,.73,.28,1.1,0,.8-.41,1.59-1.14,2.02Zm15.06,12.32c-.9,.52-2.02,.38-2.76-.29-.16-.14-.3-.31-.42-.51-.31-.51-.4-1.16-.24-1.78,.16-.61,.54-1.14,1.06-1.44l.06-.04c1.06-.58,2.4-.22,3.05,.78h0s.06,.08,.09,.13c.64,1.11,.27,2.5-.84,3.15Zm24.66-3.24h-.03c-.28,.17-.58,.27-.88,.31-.1,0-.21,.02-.31,.02-.77,0-1.52-.39-1.96-1.09-.33-.52-.43-1.17-.27-1.79,.11-.47,.36-.88,.71-1.19,.12-.11,.24-.2,.38-.28,.32-.18,.68-.28,1.03-.29,.85-.04,1.7,.38,2.14,1.13,.64,1.1,.28,2.52-.81,3.18Zm8.28-39.91c-.63-1.1-.26-2.52,.84-3.17,1.07-.63,2.53-.26,3.18,.8,.31,.52,.4,1.16,.25,1.77-.16,.62-.55,1.15-1.07,1.46l-.05,.02c-1.12,.62-2.51,.24-3.15-.88Zm7.05,18.02c-.15,.57-.51,1.09-1.07,1.41-1.1,.64-2.53,.29-3.18-.8-.26-.43-.36-.95-.3-1.47l.06-.3c.16-.62,.54-1.15,1.06-1.45l.06-.03c1.11-.61,2.52-.2,3.14,.9,.27,.46,.36,.97,.29,1.45-.01,.1-.03,.2-.06,.29Z"/></g></g></g></g></svg>