<svg id="Grafica" xmlns="http://www.w3.org/2000/svg" viewBox="0 0 811.47 457.12"><defs><style>.cls-1{fill:#008c45;}.cls-2{fill:#cd212a;}.cls-3{fill:#daa520;}</style></defs><path d="M280,271l2.89-3.63a15.85,15.85,0,0,0,4.1,2.7,10.33,10.33,0,0,0,4.16.86,6.87,6.87,0,0,0,3.63-.84,2.54,2.54,0,0,0,1.36-2.23,2.31,2.31,0,0,0-.93-1.95,7.19,7.19,0,0,0-3.08-1L287.3,264a8.29,8.29,0,0,1-4.76-2.2,5.93,5.93,0,0,1-1.62-4.32,6.45,6.45,0,0,1,2.59-5.4,11.35,11.35,0,0,1,7-2,16.81,16.81,0,0,1,5.34.9,15.42,15.42,0,0,1,4.72,2.51l-2.71,3.76a15.68,15.68,0,0,0-3.83-2.21,11,11,0,0,0-3.87-.71,6.12,6.12,0,0,0-3.24.75,2.25,2.25,0,0,0-1.22,2,2.07,2.07,0,0,0,.8,1.74,5.88,5.88,0,0,0,2.68.91l4.6.77a10.12,10.12,0,0,1,5.45,2.31,6,6,0,0,1,1.83,4.55,6.77,6.77,0,0,1-2.8,5.68,12.11,12.11,0,0,1-7.47,2.12,15.69,15.69,0,0,1-5.77-1.11A16.36,16.36,0,0,1,280,271Z"/><path d="M324.86,255v-4.46h21.46V255h-8.19v19.92h-5.05V255Z"/><path d="M393.35,264.32a12.74,12.74,0,0,1-.76,4.51,9.34,9.34,0,0,1-5.59,5.63,13.47,13.47,0,0,1-8.92,0,9.43,9.43,0,0,1-3.4-2.18,9.74,9.74,0,0,1-2.16-3.43,12.74,12.74,0,0,1-.77-4.53V250.49h5.05v13.83a6.39,6.39,0,0,0,1.59,4.53,5.46,5.46,0,0,0,4.2,1.7,5.33,5.33,0,0,0,4.16-1.7,6.5,6.5,0,0,0,1.55-4.53V250.49h5.05Z"/><path d="M420.39,274.87V250.49h9.37a13.59,13.59,0,0,1,5.09.94A12.68,12.68,0,0,1,439,254a12.13,12.13,0,0,1,2.71,3.91,11.94,11.94,0,0,1,1,4.84,11.58,11.58,0,0,1-1,4.77,11.87,11.87,0,0,1-2.71,3.85,12.82,12.82,0,0,1-4.1,2.56,13.59,13.59,0,0,1-5.09.94ZM429.73,255h-4.29v15.4h4.29a7.77,7.77,0,0,0,3-.59,8,8,0,0,0,2.46-1.62,7.51,7.51,0,0,0,1.64-2.42,7.68,7.68,0,0,0,.59-3,8.07,8.07,0,0,0-.59-3.07,7.51,7.51,0,0,0-4.1-4.11A7.77,7.77,0,0,0,429.73,255Z"/><path d="M469.1,274.87V250.49h5v24.38Z"/><path d="M526.45,262.68a12.25,12.25,0,0,1-1,4.93,12.53,12.53,0,0,1-2.74,4,12.74,12.74,0,0,1-4.09,2.66,13.6,13.6,0,0,1-10.14,0,12.74,12.74,0,0,1-4.09-2.66,12.53,12.53,0,0,1-2.74-4,12.54,12.54,0,0,1,0-9.86,12.41,12.41,0,0,1,6.83-6.67,13.6,13.6,0,0,1,10.14,0,12.41,12.41,0,0,1,6.83,6.67A12.25,12.25,0,0,1,526.45,262.68Zm-5.19,0a8.29,8.29,0,0,0-.59-3.15,8,8,0,0,0-1.62-2.51,7.4,7.4,0,0,0-2.46-1.67,7.68,7.68,0,0,0-3.07-.61,7.55,7.55,0,0,0-3,.61A7.41,7.41,0,0,0,508,257a8,8,0,0,0-1.62,2.51,8.29,8.29,0,0,0-.59,3.15,8.39,8.39,0,0,0,.59,3.14,8,8,0,0,0,1.62,2.52,7.41,7.41,0,0,0,2.44,1.67,7.55,7.55,0,0,0,3,.61,7.68,7.68,0,0,0,3.07-.61,7.4,7.4,0,0,0,2.46-1.67,8,8,0,0,0,1.62-2.52A8.39,8.39,0,0,0,521.26,262.68Z"/><path d="M122.27,334.8V294.52h20.19a15.28,15.28,0,0,1,5.44,1,12.88,12.88,0,0,1,4.29,2.62,11.72,11.72,0,0,1,2.79,4,12.71,12.71,0,0,1,1,5.09,12.21,12.21,0,0,1-1,5,11.77,11.77,0,0,1-2.82,3.94,12.89,12.89,0,0,1-4.29,2.59,15.48,15.48,0,0,1-5.41.92H130.61V334.8Zm19.28-33.09H130.61v11h10.94a6.17,6.17,0,0,0,4.34-1.49,5.13,5.13,0,0,0,1.64-4,5.22,5.22,0,0,0-1.64-4A6.1,6.1,0,0,0,141.55,301.71Z"/><path d="M161.74,334.8l16.57-40.28H188l16.34,40.28h-9l-4.09-10.59H174.57l-4.14,10.59Zm15.42-17.26h11.51L183,302.69Z"/><path d="M218.07,294.52H226l20,26.07V294.52h7.82V334.8H246.5L226,307.87V334.8h-7.88Z"/><path d="M267.67,334.8l16.57-40.28h9.67l16.34,40.28h-9l-4.09-10.59H280.5l-4.14,10.59Zm15.42-17.26H294.6l-5.7-14.85Z"/><path d="M345.64,331.92l-13.93-26.75V334.8H324V294.52h10.7l11.05,21.64,11.05-21.64h10.7V334.8h-7.88V305.22Z"/><path d="M381.25,334.8l16.57-40.28h9.67l16.34,40.28h-9l-4.09-10.59H394.08l-4.14,10.59Zm15.42-17.26h11.51l-5.7-14.85Z"/><path d="M459.5,334.8V294.52h8.35V334.8Z"/><path d="M482.92,301.89v-7.37h35.45v7.37H504.84V334.8H496.5V301.89Z"/><path d="M521.64,334.8l16.58-40.28h9.66l16.35,40.28h-9l-4.08-10.59H534.48l-4.15,10.59Zm15.43-17.26h11.5l-5.69-14.85Z"/><path d="M578,334.8V294.52h8.34v32.91h22v7.37Z"/><path d="M624.47,334.8V294.52h8.34V334.8Z"/><path d="M646.62,334.8l16.57-40.28h9.67L689.2,334.8h-9l-4.09-10.59H659.45l-4.14,10.59ZM662,317.54h11.51l-5.7-14.85Z"/><path class="cls-1" d="M556.11,188.83c9.14,5.45,17.43,10.8,24.71,15.77H688.54V188.83Z"/><path class="cls-2" d="M688.54,188.83c-.41-.17-41-16.59-95.91-33.37-50.81-15.54-124.69-34.07-188.07-34.07S267.3,139.92,216.49,155.46c-54.88,16.78-92.74,33.2-93.14,33.37V204.6c1.59-.67,163.35-67.45,281.21-67.45,81.89,0,183.42,32,238.25,51.68Z"/><path class="cls-1" d="M523.52,188.83H165c-25.26,9-41.2,15.56-41.69,15.77H551.72q-4.65-2.83-9.6-5.69C536.39,195.61,530.16,192.21,523.52,188.83Z"/><path class="cls-3" d="M230.64,204.6c-15.52,10.57-26.47,19.35-31.24,23.31l-76.05-7.59v15.79l81.19,8.15,2.57-2.24c.23-.19,21-18.14,52.63-37.42Z"/><path class="cls-3" d="M688.54,220.32l-76.47,7.59a459.89,459.89,0,0,0-61.8-42.49c-64.4-37.11-114.15-44.9-144.54-44.9s-80.13,7.79-144.54,44.9q-3,1.71-5.83,3.41H288c32.54-16.55,75-32.54,117.78-32.54,47.07,0,93.82,19.37,127.33,37.56l.33.18,3.83,2.11.89.49,4,2.28q2.26,1.31,4.47,2.61l.89.53c34,20.22,56.64,39.77,56.87,40l2.57,2.24,81.62-8.19Z"/></svg>