<svg id="Layer_1" data-name="Layer 1" xmlns="http://www.w3.org/2000/svg" viewBox="0 0 21.34 15.88"><defs><style>.cls-1{fill:#84d044;}</style></defs><g id="Layer_2" data-name="Layer 2"><g id="IT"><path class="cls-1" d="M21.34,15.19V.78a.73.73,0,0,0-.22-.52A.7.7,0,0,0,20.64,0H.77A.79.79,0,0,0,0,.74v14.4a.76.76,0,0,0,.45.69.93.93,0,0,0,.29.05H20.61A.73.73,0,0,0,21.34,15.19ZM10.68,10.86,2.44,1.48,19,1.52Zm-.55,1.61a.64.64,0,0,0,.27.19.67.67,0,0,0,.28.06.73.73,0,0,0,.55-.25l3.24-3.65L19,14.45H2.34L6.91,8.8Zm9.74.7L15.46,7.7l4.44-5ZM1.5,2.65l4.42,5L1.48,13.13Z"/></g></g></svg>