<svg id="Layer_1" data-name="Layer 1" xmlns="http://www.w3.org/2000/svg" viewBox="0 0 33.74 32.94"><defs><style>.cls-1{fill:#fff;}</style></defs><path class="cls-1" d="M27.41,28.11a2.39,2.39,0,0,0,1.44.56h0A1.56,1.56,0,0,0,30.17,28a2.48,2.48,0,0,0,.39-1.45V18l2.66-1a.8.8,0,0,0,.52-.74V11.9a.79.79,0,0,0-.52-.74l-2.66-1v-8C30.56.66,29.71,0,28.86,0a2.43,2.43,0,0,0-1.45.56l0,0L20.71,6.33a5,5,0,0,1-3,1.2H3.14A3.28,3.28,0,0,0,0,10.85v7A3.18,3.18,0,0,0,3.14,21H4.46L6,32.25a.8.8,0,0,0,.79.69H13.1a.79.79,0,0,0,.6-.28.79.79,0,0,0,.19-.62L12.42,21h5.27a5.09,5.09,0,0,1,3,1.25l6.64,5.8Zm4.74-15.66v3.27l-1.59.59V11.85ZM1.59,17.82v-7A1.69,1.69,0,0,1,3.14,9.12H15.08V19.44H3.14A1.59,1.59,0,0,1,1.59,17.82Zm10.6,13.53H7.44L6.07,21h4.75ZM21.7,21a6.79,6.79,0,0,0-4-1.59h-1V9.12h1a6.53,6.53,0,0,0,4-1.54l0,0,6.65-5.74a1.18,1.18,0,0,1,.47-.23s.12.19.12.56V26.53a1.07,1.07,0,0,1-.1.55h0a.93.93,0,0,1-.47-.22l-6.63-5.79Z"/></svg>