<svg id="Layer_1" data-name="Layer 1" xmlns="http://www.w3.org/2000/svg" viewBox="0 0 19.88 19.88"><defs><style>.cls-1{fill:#84d044;}</style></defs><g id="_1" data-name=" 1"><path class="cls-1" d="M14.57,19.88a10,10,0,0,1-2.3-.29,16.34,16.34,0,0,1-7.51-4.47A16.43,16.43,0,0,1,.29,7.61C-.37,4.88.1,2.55,1.61,1L2,.61a2.09,2.09,0,0,1,3,0L7.47,3.09a2.09,2.09,0,0,1,0,3L6,7.5a17.19,17.19,0,0,0,2.78,3.59,17.19,17.19,0,0,0,3.59,2.78l1.46-1.46a2.09,2.09,0,0,1,2.95,0h0l2.48,2.48a2.09,2.09,0,0,1,0,2.95l-.43.43A5.89,5.89,0,0,1,14.57,19.88Zm-11-18.4a.62.62,0,0,0-.43.18l-.43.43c-1.13,1.13-1.46,3-.93,5.17a14.88,14.88,0,0,0,4.08,6.81,15,15,0,0,0,6.81,4.08c2.2.53,4,.2,5.17-.93l.43-.43a.61.61,0,0,0,0-.85l-2.48-2.48a.59.59,0,0,0-.85,0L13,15.31a.74.74,0,0,1-.87.14,18.4,18.4,0,0,1-4.43-3.31A18.4,18.4,0,0,1,4.43,7.71a.76.76,0,0,1,.13-.87L6.42,5a.61.61,0,0,0,0-.85L3.94,1.66A.6.6,0,0,0,3.52,1.48Z"/><path class="cls-1" d="M15.36,11a.74.74,0,0,1-.74-.74h0A4.92,4.92,0,0,0,9.71,5.31a.74.74,0,1,1,0-1.48h0a6.4,6.4,0,0,1,6.39,6.39.74.74,0,0,1-.74.74Z"/><path class="cls-1" d="M18.5,11a.75.75,0,0,1-.75-.74h0a8.05,8.05,0,0,0-8-8A.74.74,0,0,1,9,1.44.75.75,0,0,1,9.71.69h0a9.55,9.55,0,0,1,9.53,9.53.74.74,0,0,1-.74.74Z"/></g></svg>